# Blender v2.79 (sub 0) OBJ File: ''
# www.blender.org
mtllib banque.mtl
o SketchUp.001_ID14.002
v -3.006011 0.000000 -2.973356
v -2.006011 0.000000 -1.973356
v -3.006011 0.000000 3.026644
v 2.993989 0.000000 -2.973356
v 1.993989 0.000000 -1.973356
v 1.993989 0.000000 2.026644
v -2.006011 0.000000 2.026644
v 2.993989 0.000000 3.026644
v 2.993989 0.000000 -2.973356
v 1.993989 0.000000 2.026644
v 2.993989 0.000000 3.026644
v -2.006011 0.000000 2.026644
v -2.006011 0.000000 -1.973356
v -3.006011 0.000000 3.026644
v 1.993989 0.000000 -1.973356
v -3.006011 0.000000 -2.973356
v 1.993989 2.500000 -1.973356
v -3.006011 0.000000 -2.973356
v 2.993989 0.000000 -2.973356
v -2.006011 2.500000 -1.973356
v -2.006011 2.500000 -1.973356
v 1.993989 2.500000 -1.973356
v -3.006011 0.000000 -2.973356
v 2.993989 0.000000 -2.973356
v 1.993989 2.500000 2.026644
v 2.993989 0.000000 -2.973356
v 2.993989 0.000000 3.026644
v 1.993989 2.500000 -1.973356
v 1.993989 2.500000 -1.973356
v 1.993989 2.500000 2.026644
v 2.993989 0.000000 -2.973356
v 2.993989 0.000000 3.026644
v -2.006011 2.500000 2.026644
v 2.993989 0.000000 3.026644
v -3.006011 0.000000 3.026644
v 1.993989 2.500000 2.026644
v 1.993989 2.500000 2.026644
v -2.006011 2.500000 2.026644
v 2.993989 0.000000 3.026644
v -3.006011 0.000000 3.026644
v -3.006011 0.000000 -2.973356
v -2.006011 2.500000 2.026644
v -3.006011 0.000000 3.026644
v -2.006011 2.500000 -1.973356
v -2.006011 2.500000 -1.973356
v -3.006011 0.000000 -2.973356
v -2.006011 2.500000 2.026644
v -3.006011 0.000000 3.026644
v -2.006011 2.500000 -1.973356
v 1.993989 0.500000 -1.973356
v -2.006011 0.500000 -1.973356
v 1.993989 2.500000 -1.973356
v 1.993989 2.500000 -1.973356
v -2.006011 2.500000 -1.973356
v 1.993989 0.500000 -1.973356
v -2.006011 0.500000 -1.973356
v 1.993989 0.500000 -1.973356
v 1.993989 2.500000 2.026644
v 1.993989 0.500000 2.026644
v 1.993989 2.500000 -1.973356
v 1.993989 2.500000 -1.973356
v 1.993989 0.500000 -1.973356
v 1.993989 2.500000 2.026644
v 1.993989 0.500000 2.026644
v 1.993989 2.500000 2.026644
v -2.006011 0.500000 2.026644
v 1.993989 0.500000 2.026644
v -2.006011 2.500000 2.026644
v -2.006011 2.500000 2.026644
v 1.993989 2.500000 2.026644
v -2.006011 0.500000 2.026644
v 1.993989 0.500000 2.026644
v -2.006011 2.500000 -1.973356
v -2.006011 0.500000 2.026644
v -2.006011 2.500000 2.026644
v -2.006011 0.500000 -1.973356
v -2.006011 0.500000 -1.973356
v -2.006011 2.500000 -1.973356
v -2.006011 0.500000 2.026644
v -2.006011 2.500000 2.026644
v 1.993989 0.000000 -1.973356
v -2.006011 0.000000 -1.973356
v 1.993989 0.000000 -1.973356
v -2.006011 0.000000 -1.973356
v 1.993989 0.500000 2.026644
v -2.006011 0.500000 -1.973356
v -2.006011 0.500000 2.026644
v 1.993989 0.500000 -1.973356
v 1.993989 0.500000 -1.973356
v 1.993989 0.500000 2.026644
v -2.006011 0.500000 -1.973356
v -2.006011 0.500000 2.026644
v 1.993989 0.000000 -1.973356
v 1.993989 0.000000 2.026644
v 1.993989 0.000000 -1.973356
v 1.993989 0.000000 2.026644
v -2.006011 0.000000 2.026644
v 1.993989 0.000000 2.026644
v -2.006011 0.000000 2.026644
v 1.993989 0.000000 2.026644
v -2.006011 0.000000 2.026644
v -2.006011 0.000000 -1.973356
v -2.006011 0.000000 -1.973356
v -2.006011 0.000000 2.026644
v 2.993989 0.000000 -2.973356
v -3.006011 0.000000 -2.973356
v 2.993989 0.000000 3.026644
v -3.006011 0.000000 3.026644
v -2.006011 0.000000 -1.973356
v -2.006011 0.000000 2.026644
v 1.993989 0.000000 2.026644
v 1.993989 0.000000 -1.973356
v -2.006011 2.500000 -1.973356
v 1.993989 2.500000 -1.973356
v 1.993989 2.500000 2.026644
v -2.006011 2.500000 2.026644
v 1.993989 0.500000 -1.973356
v -2.006011 0.500000 -1.973356
v 1.993989 0.500000 2.026644
v -2.006011 0.500000 2.026644
vn -0.0000 -1.0000 -0.0000
vn -0.0000 1.0000 0.0000
vn 0.0000 -0.3714 0.9285
vn 0.0000 0.3714 -0.9285
vn -0.9285 -0.3714 -0.0000
vn 0.9285 0.3714 0.0000
vn 0.0000 -0.3714 -0.9285
vn 0.0000 0.3714 0.9285
vn 0.9285 -0.3714 -0.0000
vn -0.9285 0.3714 0.0000
vn 0.0000 0.0000 -1.0000
vn 0.0000 0.0000 1.0000
vn 1.0000 0.0000 0.0000
vn -1.0000 0.0000 0.0000
usemtl Layer_Layer0.003
s 1
f 1//1 2//1 3//1
f 2//1 1//1 4//1
f 2//1 4//1 5//1
f 5//1 4//1 6//1
f 3//1 7//1 8//1
f 7//1 3//1 2//1
f 8//1 7//1 6//1
f 8//1 6//1 4//1
f 9//2 10//2 11//2
f 10//2 12//2 11//2
f 13//2 14//2 12//2
f 11//2 12//2 14//2
f 10//2 9//2 15//2
f 15//2 9//2 13//2
f 9//2 16//2 13//2
f 14//2 13//2 16//2
f 17//3 18//3 19//3
f 18//3 17//3 20//3
f 21//4 22//4 23//4
f 24//4 23//4 22//4
f 25//5 26//5 27//5
f 26//5 25//5 28//5
f 29//6 30//6 31//6
f 32//6 31//6 30//6
f 33//7 34//7 35//7
f 34//7 33//7 36//7
f 37//8 38//8 39//8
f 40//8 39//8 38//8
f 41//9 42//9 43//9
f 42//9 41//9 44//9
f 45//10 46//10 47//10
f 48//10 47//10 46//10
f 49//11 50//11 51//11
f 50//11 49//11 52//11
f 53//12 54//12 55//12
f 56//12 55//12 54//12
f 57//13 58//13 59//13
f 58//13 57//13 60//13
f 61//14 62//14 63//14
f 64//14 63//14 62//14
f 65//12 66//12 67//12
f 66//12 65//12 68//12
f 69//11 70//11 71//11
f 72//11 71//11 70//11
f 73//14 74//14 75//14
f 74//14 73//14 76//14
f 77//13 78//13 79//13
f 80//13 79//13 78//13
f 51//11 81//11 82//11
f 81//11 51//11 50//11
f 55//12 56//12 83//12
f 84//12 83//12 56//12
f 85//2 86//2 87//2
f 86//2 85//2 88//2
f 89//1 90//1 91//1
f 92//1 91//1 90//1
f 93//13 59//13 94//13
f 59//13 93//13 57//13
f 62//14 95//14 64//14
f 96//14 64//14 95//14
f 67//12 97//12 98//12
f 97//12 67//12 66//12
f 71//11 72//11 99//11
f 100//11 99//11 72//11
f 76//14 101//14 74//14
f 101//14 76//14 102//14
f 103//13 77//13 104//13
f 79//13 104//13 77//13
f 5//1 7//1 2//1
f 7//1 5//1 6//1
f 10//2 15//2 12//2
f 13//2 12//2 15//2
o SketchUp_ID2.002
v -4.006011 0.000000 -3.973356
v -3.006011 0.000000 -2.973356
v -4.006011 0.000000 4.026644
v 3.993989 0.000000 -3.973356
v 2.993989 0.000000 -2.973356
v 2.993989 0.000000 3.026644
v -3.006011 0.000000 3.026644
v 3.993989 0.000000 4.026644
v 3.993989 0.000000 -3.973356
v 2.993989 0.000000 3.026644
v 3.993989 0.000000 4.026644
v -3.006011 0.000000 3.026644
v -3.006011 0.000000 -2.973356
v -4.006011 0.000000 4.026644
v 2.993989 0.000000 -2.973356
v -4.006011 0.000000 -3.973356
v 3.993989 0.000000 4.026644
v 3.993989 0.000000 -3.973356
v -4.006011 0.000000 4.026644
v -4.006011 0.000000 -3.973356
v 2.993989 0.000000 -2.973356
v -3.006011 0.000000 -2.973356
v -3.006011 0.000000 3.026644
v 2.993989 0.000000 3.026644
vn -0.0000 -1.0000 -0.0000
vn -0.0000 1.0000 0.0000
usemtl Layer_Layer0.003
s 1
f 121//15 122//15 123//15
f 122//15 121//15 124//15
f 122//15 124//15 125//15
f 125//15 124//15 126//15
f 123//15 127//15 128//15
f 127//15 123//15 122//15
f 128//15 127//15 126//15
f 128//15 126//15 124//15
f 129//16 130//16 131//16
f 130//16 132//16 131//16
f 133//16 134//16 132//16
f 131//16 132//16 134//16
f 130//16 129//16 135//16
f 135//16 129//16 133//16
f 129//16 136//16 133//16
f 134//16 133//16 136//16
