# Blender v2.79 (sub 0) OBJ File: ''
# www.blender.org
mtllib entrepot.mtl
o SketchUp_ID2.001
v -4.000000 0.000000 -4.000000
v -3.000000 0.000000 -3.000000
v -4.000000 0.000000 4.000000
v 4.000000 0.000000 -4.000000
v 3.000000 0.000000 -3.000000
v 3.000000 0.000000 3.000000
v -3.000000 0.000000 3.000000
v 4.000000 0.000000 4.000000
v 4.000000 0.000000 -4.000000
v 3.000000 0.000000 3.000000
v 4.000000 0.000000 4.000000
v -3.000000 0.000000 3.000000
v -3.000000 0.000000 -3.000000
v -4.000000 0.000000 4.000000
v 3.000000 0.000000 -3.000000
v -4.000000 0.000000 -4.000000
v -4.000000 0.000000 4.000000
v 4.000000 0.000000 4.000000
v -4.000000 0.000000 -4.000000
v 4.000000 0.000000 -4.000000
v -3.000000 0.000000 -3.000000
v -3.000000 0.000000 3.000000
v 3.000000 0.000000 3.000000
v 3.000000 0.000000 -3.000000
vn -0.0000 -1.0000 -0.0000
vn -0.0000 1.0000 0.0000
usemtl Layer_Layer0.002
s 1
f 1//1 2//1 3//1
f 2//1 1//1 4//1
f 2//1 4//1 5//1
f 5//1 4//1 6//1
f 3//1 7//1 8//1
f 7//1 3//1 2//1
f 8//1 7//1 6//1
f 8//1 6//1 4//1
f 9//2 10//2 11//2
f 10//2 12//2 11//2
f 13//2 14//2 12//2
f 11//2 12//2 14//2
f 10//2 9//2 15//2
f 15//2 9//2 13//2
f 9//2 16//2 13//2
f 14//2 13//2 16//2
o SketchUp.001_ID14.001
v -2.500000 0.000000 -2.500000
v -2.000000 0.000000 -2.000000
v -2.500000 0.000000 2.500000
v 2.500000 0.000000 -2.500000
v -0.500000 0.000000 -2.000000
v 0.500000 0.000000 -2.000000
v -0.500000 0.000000 2.000000
v 2.000000 0.000000 -2.000000
v 2.000000 0.000000 2.000000
v -2.000000 0.000000 2.000000
v 2.500000 0.000000 2.500000
v 0.500000 0.000000 2.000000
v 2.500000 0.000000 -2.500000
v 2.000000 0.000000 2.000000
v 2.500000 0.000000 2.500000
v 0.500000 0.000000 2.000000
v 0.500000 0.000000 -2.000000
v -0.500000 0.000000 2.000000
v -2.000000 0.000000 2.000000
v -2.000000 0.000000 -2.000000
v -2.500000 0.000000 2.500000
v 2.000000 0.000000 -2.000000
v -0.500000 0.000000 -2.000000
v -2.500000 0.000000 -2.500000
v -2.500000 1.000000 -2.500000
v -2.500000 0.000000 2.500000
v -2.500000 1.000000 2.500000
v -2.500000 0.000000 -2.500000
v -2.500000 0.000000 -2.500000
v -2.500000 1.000000 -2.500000
v -2.500000 0.000000 2.500000
v -2.500000 1.000000 2.500000
v -2.500000 1.000000 -2.500000
v 2.500000 0.000000 -2.500000
v -2.500000 0.000000 -2.500000
v 2.500000 1.000000 -2.500000
v 2.500000 1.000000 -2.500000
v -2.500000 1.000000 -2.500000
v 2.500000 0.000000 -2.500000
v -2.500000 0.000000 -2.500000
v 2.500000 0.000000 -2.500000
v 2.500000 1.000000 2.500000
v 2.500000 0.000000 2.500000
v 2.500000 1.000000 -2.500000
v 2.500000 1.000000 -2.500000
v 2.500000 0.000000 -2.500000
v 2.500000 1.000000 2.500000
v 2.500000 0.000000 2.500000
v 2.500000 1.000000 2.500000
v -2.500000 0.000000 2.500000
v 2.500000 0.000000 2.500000
v -2.500000 1.000000 2.500000
v -2.500000 1.000000 2.500000
v 2.500000 1.000000 2.500000
v -2.500000 0.000000 2.500000
v 2.500000 0.000000 2.500000
v -2.500000 0.000000 -2.500000
v -2.500000 0.000000 2.500000
v 2.500000 0.000000 -2.500000
v 2.500000 0.000000 2.500000
v -2.000000 0.000000 2.000000
v -0.500000 0.000000 2.000000
v -0.500000 0.000000 -2.000000
v -2.000000 0.000000 -2.000000
v 0.500000 0.000000 2.000000
v 2.000000 0.000000 2.000000
v 2.000000 0.000000 -2.000000
v 0.500000 0.000000 -2.000000
v -2.500000 1.000000 2.500000
v -2.500000 1.000000 -2.500000
v 2.500000 1.000000 -2.500000
v 2.500000 1.000000 2.500000
vn -0.0000 -1.0000 -0.0000
vn -0.0000 1.0000 0.0000
vn -1.0000 0.0000 0.0000
vn 1.0000 0.0000 0.0000
vn 0.0000 0.0000 -1.0000
vn 0.0000 0.0000 1.0000
usemtl Layer_Layer0.002
s 1
f 25//3 26//3 27//3
f 26//3 25//3 28//3
f 26//3 28//3 29//3
f 29//3 28//3 30//3
f 29//3 30//3 31//3
f 30//3 28//3 32//3
f 32//3 28//3 33//3
f 27//3 34//3 35//3
f 34//3 27//3 26//3
f 35//3 34//3 31//3
f 35//3 31//3 36//3
f 36//3 31//3 30//3
f 35//3 36//3 33//3
f 35//3 33//3 28//3
f 37//4 38//4 39//4
f 38//4 40//4 39//4
f 41//4 42//4 40//4
f 40//4 42//4 39//4
f 42//4 43//4 39//4
f 44//4 45//4 43//4
f 39//4 43//4 45//4
f 38//4 37//4 46//4
f 46//4 37//4 41//4
f 42//4 41//4 47//4
f 41//4 37//4 47//4
f 47//4 37//4 44//4
f 37//4 48//4 44//4
f 45//4 44//4 48//4
f 49//5 50//5 51//5
f 50//5 49//5 52//5
f 53//6 54//6 55//6
f 56//6 55//6 54//6
f 57//7 58//7 59//7
f 58//7 57//7 60//7
f 61//8 62//8 63//8
f 64//8 63//8 62//8
f 65//6 66//6 67//6
f 66//6 65//6 68//6
f 69//5 70//5 71//5
f 72//5 71//5 70//5
f 73//8 74//8 75//8
f 74//8 73//8 76//8
f 77//7 78//7 79//7
f 80//7 79//7 78//7
o SketchUp.003_ID30.001
v 1.800000 0.000000 -1.800000
v 0.700000 0.000000 1.800000
v 0.700000 0.000000 -1.800000
v 1.800000 0.000000 1.800000
v 1.800000 0.000000 1.800000
v 1.800000 0.000000 -1.800000
v 0.700000 0.000000 1.800000
v 0.700000 0.000000 -1.800000
v 1.800000 0.000000 -1.800000
v 1.800000 2.000000 1.800000
v 1.800000 0.000000 1.800000
v 1.800000 2.000000 -1.800000
v 1.800000 2.000000 -1.800000
v 1.800000 0.000000 -1.800000
v 1.800000 2.000000 1.800000
v 1.800000 0.000000 1.800000
v 1.800000 2.000000 1.800000
v 0.700000 0.000000 1.800000
v 1.800000 0.000000 1.800000
v 0.700000 2.000000 1.800000
v 0.700000 2.000000 1.800000
v 1.800000 2.000000 1.800000
v 0.700000 0.000000 1.800000
v 1.800000 0.000000 1.800000
v 0.700000 2.000000 -1.800000
v 0.700000 0.000000 1.800000
v 0.700000 2.000000 1.800000
v 0.700000 0.000000 -1.800000
v 0.700000 0.000000 -1.800000
v 0.700000 2.000000 -1.800000
v 0.700000 0.000000 1.800000
v 0.700000 2.000000 1.800000
v 0.700000 2.000000 -1.800000
v 1.800000 0.000000 -1.800000
v 0.700000 0.000000 -1.800000
v 1.800000 2.000000 -1.800000
v 1.800000 2.000000 -1.800000
v 0.700000 2.000000 -1.800000
v 1.800000 0.000000 -1.800000
v 0.700000 0.000000 -1.800000
v 1.800000 0.000000 1.800000
v 1.800000 0.000000 -1.800000
v 0.700000 0.000000 1.800000
v 0.700000 0.000000 -1.800000
v 1.800000 2.000000 -1.800000
v 1.800000 2.000000 1.800000
v 0.700000 2.000000 1.800000
v 0.700000 2.000000 -1.800000
vn 0.0000 -1.0000 -0.0000
vn 0.0000 1.0000 0.0000
vn 1.0000 0.0000 0.0000
vn -1.0000 0.0000 0.0000
vn 0.0000 0.0000 1.0000
vn 0.0000 0.0000 -1.0000
usemtl Layer_Layer0.002
s 1
f 97//9 98//9 99//9
f 98//9 97//9 100//9
f 101//10 102//10 103//10
f 104//10 103//10 102//10
f 105//11 106//11 107//11
f 106//11 105//11 108//11
f 109//12 110//12 111//12
f 112//12 111//12 110//12
f 113//13 114//13 115//13
f 114//13 113//13 116//13
f 117//14 118//14 119//14
f 120//14 119//14 118//14
f 121//12 122//12 123//12
f 122//12 121//12 124//12
f 125//11 126//11 127//11
f 128//11 127//11 126//11
f 129//14 130//14 131//14
f 130//14 129//14 132//14
f 133//13 134//13 135//13
f 136//13 135//13 134//13
o SketchUp.005_ID46.001
v 0.500000 2.000000 -2.000000
v 0.700000 2.000000 -1.800000
v 0.500000 2.000000 2.000000
v 2.000000 2.000000 -2.000000
v 1.800000 2.000000 -1.800000
v 1.800000 2.000000 1.800000
v 0.700000 2.000000 1.800000
v 2.000000 2.000000 2.000000
v 2.000000 2.000000 -2.000000
v 1.800000 2.000000 1.800000
v 2.000000 2.000000 2.000000
v 0.700000 2.000000 1.800000
v 0.700000 2.000000 -1.800000
v 0.500000 2.000000 2.000000
v 1.800000 2.000000 -1.800000
v 0.500000 2.000000 -2.000000
v 0.500000 2.000000 2.000000
v 2.000000 0.000000 2.000000
v 0.500000 0.000000 2.000000
v 2.000000 2.000000 2.000000
v 2.000000 2.000000 2.000000
v 0.500000 2.000000 2.000000
v 2.000000 0.000000 2.000000
v 0.500000 0.000000 2.000000
v 0.500000 0.000000 -2.000000
v 0.500000 2.000000 2.000000
v 0.500000 0.000000 2.000000
v 0.500000 2.000000 -2.000000
v 0.500000 2.000000 -2.000000
v 0.500000 0.000000 -2.000000
v 0.500000 2.000000 2.000000
v 0.500000 0.000000 2.000000
v 2.000000 2.000000 -2.000000
v 0.500000 0.000000 -2.000000
v 2.000000 0.000000 -2.000000
v 0.500000 2.000000 -2.000000
v 0.500000 2.000000 -2.000000
v 2.000000 2.000000 -2.000000
v 0.500000 0.000000 -2.000000
v 2.000000 0.000000 -2.000000
v 2.000000 2.000000 -2.000000
v 2.000000 0.000000 2.000000
v 2.000000 2.000000 2.000000
v 2.000000 0.000000 -2.000000
v 2.000000 0.000000 -2.000000
v 2.000000 2.000000 -2.000000
v 2.000000 0.000000 2.000000
v 2.000000 2.000000 2.000000
v 0.500000 2.000000 2.000000
v 2.000000 2.000000 2.000000
v 0.500000 2.000000 -2.000000
v 2.000000 2.000000 -2.000000
v 1.800000 2.000000 1.800000
v 1.800000 2.000000 -1.800000
v 0.700000 2.000000 -1.800000
v 0.700000 2.000000 1.800000
v 0.500000 0.000000 2.000000
v 2.000000 0.000000 2.000000
v 0.500000 0.000000 -2.000000
v 2.000000 0.000000 -2.000000
vn 0.0000 -1.0000 -0.0000
vn 0.0000 1.0000 0.0000
vn 0.0000 0.0000 -1.0000
vn 0.0000 0.0000 1.0000
vn 1.0000 0.0000 0.0000
vn -1.0000 0.0000 0.0000
usemtl Layer_Layer0.002
s 1
f 145//15 146//15 147//15
f 146//15 145//15 148//15
f 146//15 148//15 149//15
f 149//15 148//15 150//15
f 147//15 151//15 152//15
f 151//15 147//15 146//15
f 152//15 151//15 150//15
f 152//15 150//15 148//15
f 153//16 154//16 155//16
f 154//16 156//16 155//16
f 157//16 158//16 156//16
f 155//16 156//16 158//16
f 154//16 153//16 159//16
f 159//16 153//16 157//16
f 153//16 160//16 157//16
f 158//16 157//16 160//16
f 161//17 162//17 163//17
f 162//17 161//17 164//17
f 165//18 166//18 167//18
f 168//18 167//18 166//18
f 169//19 170//19 171//19
f 170//19 169//19 172//19
f 173//20 174//20 175//20
f 176//20 175//20 174//20
f 177//18 178//18 179//18
f 178//18 177//18 180//18
f 181//17 182//17 183//17
f 184//17 183//17 182//17
f 185//20 186//20 187//20
f 186//20 185//20 188//20
f 189//19 190//19 191//19
f 192//19 191//19 190//19
o SketchUp.004_ID38.001
v -0.700000 0.000000 -1.800000
v -1.800000 0.000000 1.800000
v -1.800000 0.000000 -1.800000
v -0.700000 0.000000 1.800000
v -0.700000 0.000000 1.800000
v -0.700000 0.000000 -1.800000
v -1.800000 0.000000 1.800000
v -1.800000 0.000000 -1.800000
v -0.700000 0.000000 -1.800000
v -0.700000 2.000000 1.800000
v -0.700000 0.000000 1.800000
v -0.700000 2.000000 -1.800000
v -0.700000 2.000000 -1.800000
v -0.700000 0.000000 -1.800000
v -0.700000 2.000000 1.800000
v -0.700000 0.000000 1.800000
v -0.700000 2.000000 1.800000
v -1.800000 0.000000 1.800000
v -0.700000 0.000000 1.800000
v -1.800000 2.000000 1.800000
v -1.800000 2.000000 1.800000
v -0.700000 2.000000 1.800000
v -1.800000 0.000000 1.800000
v -0.700000 0.000000 1.800000
v -1.800000 2.000000 -1.800000
v -1.800000 0.000000 1.800000
v -1.800000 2.000000 1.800000
v -1.800000 0.000000 -1.800000
v -1.800000 0.000000 -1.800000
v -1.800000 2.000000 -1.800000
v -1.800000 0.000000 1.800000
v -1.800000 2.000000 1.800000
v -1.800000 2.000000 -1.800000
v -0.700000 0.000000 -1.800000
v -1.800000 0.000000 -1.800000
v -0.700000 2.000000 -1.800000
v -0.700000 2.000000 -1.800000
v -1.800000 2.000000 -1.800000
v -0.700000 0.000000 -1.800000
v -1.800000 0.000000 -1.800000
v -0.700000 0.000000 1.800000
v -0.700000 0.000000 -1.800000
v -1.800000 0.000000 1.800000
v -1.800000 0.000000 -1.800000
v -0.700000 2.000000 -1.800000
v -0.700000 2.000000 1.800000
v -1.800000 2.000000 1.800000
v -1.800000 2.000000 -1.800000
vn 0.0000 -1.0000 -0.0000
vn 0.0000 1.0000 0.0000
vn 1.0000 0.0000 0.0000
vn -1.0000 0.0000 0.0000
vn 0.0000 0.0000 1.0000
vn 0.0000 0.0000 -1.0000
usemtl Layer_Layer0.002
s 1
f 205//21 206//21 207//21
f 206//21 205//21 208//21
f 209//22 210//22 211//22
f 212//22 211//22 210//22
f 213//23 214//23 215//23
f 214//23 213//23 216//23
f 217//24 218//24 219//24
f 220//24 219//24 218//24
f 221//25 222//25 223//25
f 222//25 221//25 224//25
f 225//26 226//26 227//26
f 228//26 227//26 226//26
f 229//24 230//24 231//24
f 230//24 229//24 232//24
f 233//23 234//23 235//23
f 236//23 235//23 234//23
f 237//26 238//26 239//26
f 238//26 237//26 240//26
f 241//25 242//25 243//25
f 244//25 243//25 242//25
o SketchUp.002_ID22.001
v -3.000000 1.000000 -3.000000
v -2.500000 1.000000 -2.500000
v -3.000000 1.000000 3.000000
v 3.000000 1.000000 -3.000000
v 2.500000 1.000000 -2.500000
v 2.500000 1.000000 2.500000
v -2.500000 1.000000 2.500000
v 3.000000 1.000000 3.000000
v 3.000000 1.000000 -3.000000
v 2.500000 1.000000 2.500000
v 3.000000 1.000000 3.000000
v -2.500000 1.000000 2.500000
v -2.500000 1.000000 -2.500000
v -3.000000 1.000000 3.000000
v 2.500000 1.000000 -2.500000
v -3.000000 1.000000 -3.000000
v -3.000000 0.000000 -3.000000
v -3.000000 1.000000 3.000000
v -3.000000 0.000000 3.000000
v -3.000000 1.000000 -3.000000
v -3.000000 1.000000 -3.000000
v -3.000000 0.000000 -3.000000
v -3.000000 1.000000 3.000000
v -3.000000 0.000000 3.000000
v 3.000000 1.000000 -3.000000
v -3.000000 0.000000 -3.000000
v 3.000000 0.000000 -3.000000
v -3.000000 1.000000 -3.000000
v -3.000000 1.000000 -3.000000
v 3.000000 1.000000 -3.000000
v -3.000000 0.000000 -3.000000
v 3.000000 0.000000 -3.000000
v 3.000000 1.000000 -3.000000
v 3.000000 0.000000 3.000000
v 3.000000 1.000000 3.000000
v 3.000000 0.000000 -3.000000
v 3.000000 0.000000 -3.000000
v 3.000000 1.000000 -3.000000
v 3.000000 0.000000 3.000000
v 3.000000 1.000000 3.000000
v -3.000000 1.000000 3.000000
v 3.000000 0.000000 3.000000
v -3.000000 0.000000 3.000000
v 3.000000 1.000000 3.000000
v 3.000000 1.000000 3.000000
v -3.000000 1.000000 3.000000
v 3.000000 0.000000 3.000000
v -3.000000 0.000000 3.000000
v -3.000000 1.000000 -3.000000
v -3.000000 1.000000 3.000000
v 3.000000 1.000000 -3.000000
v 3.000000 1.000000 3.000000
v -2.500000 1.000000 -2.500000
v -2.500000 1.000000 2.500000
v 2.500000 1.000000 2.500000
v 2.500000 1.000000 -2.500000
v -3.000000 0.000000 -3.000000
v -3.000000 0.000000 3.000000
v 3.000000 0.000000 -3.000000
v 3.000000 0.000000 3.000000
vn -0.0000 -1.0000 -0.0000
vn -0.0000 1.0000 0.0000
vn 1.0000 0.0000 0.0000
vn -1.0000 0.0000 0.0000
vn 0.0000 0.0000 1.0000
vn 0.0000 0.0000 -1.0000
usemtl Layer_Layer0.002
s 1
f 253//27 254//27 255//27
f 254//27 253//27 256//27
f 254//27 256//27 257//27
f 257//27 256//27 258//27
f 255//27 259//27 260//27
f 259//27 255//27 254//27
f 260//27 259//27 258//27
f 260//27 258//27 256//27
f 261//28 262//28 263//28
f 262//28 264//28 263//28
f 265//28 266//28 264//28
f 263//28 264//28 266//28
f 262//28 261//28 267//28
f 267//28 261//28 265//28
f 261//28 268//28 265//28
f 266//28 265//28 268//28
f 269//29 270//29 271//29
f 270//29 269//29 272//29
f 273//30 274//30 275//30
f 276//30 275//30 274//30
f 277//31 278//31 279//31
f 278//31 277//31 280//31
f 281//32 282//32 283//32
f 284//32 283//32 282//32
f 285//30 286//30 287//30
f 286//30 285//30 288//30
f 289//29 290//29 291//29
f 292//29 291//29 290//29
f 293//32 294//32 295//32
f 294//32 293//32 296//32
f 297//31 298//31 299//31
f 300//31 299//31 298//31
o SketchUp.006_ID54.001
v -2.000000 2.000000 -2.000000
v -1.800000 2.000000 -1.800000
v -2.000000 2.000000 2.000000
v -0.500000 2.000000 -2.000000
v -0.700000 2.000000 -1.800000
v -0.700000 2.000000 1.800000
v -1.800000 2.000000 1.800000
v -0.500000 2.000000 2.000000
v -0.500000 2.000000 -2.000000
v -0.700000 2.000000 1.800000
v -0.500000 2.000000 2.000000
v -1.800000 2.000000 1.800000
v -1.800000 2.000000 -1.800000
v -2.000000 2.000000 2.000000
v -0.700000 2.000000 -1.800000
v -2.000000 2.000000 -2.000000
v -2.000000 2.000000 2.000000
v -0.500000 0.000000 2.000000
v -2.000000 0.000000 2.000000
v -0.500000 2.000000 2.000000
v -0.500000 2.000000 2.000000
v -2.000000 2.000000 2.000000
v -0.500000 0.000000 2.000000
v -2.000000 0.000000 2.000000
v -2.000000 0.000000 -2.000000
v -2.000000 2.000000 2.000000
v -2.000000 0.000000 2.000000
v -2.000000 2.000000 -2.000000
v -2.000000 2.000000 -2.000000
v -2.000000 0.000000 -2.000000
v -2.000000 2.000000 2.000000
v -2.000000 0.000000 2.000000
v -0.500000 2.000000 -2.000000
v -2.000000 0.000000 -2.000000
v -0.500000 0.000000 -2.000000
v -2.000000 2.000000 -2.000000
v -2.000000 2.000000 -2.000000
v -0.500000 2.000000 -2.000000
v -2.000000 0.000000 -2.000000
v -0.500000 0.000000 -2.000000
v -0.500000 2.000000 -2.000000
v -0.500000 0.000000 2.000000
v -0.500000 2.000000 2.000000
v -0.500000 0.000000 -2.000000
v -0.500000 0.000000 -2.000000
v -0.500000 2.000000 -2.000000
v -0.500000 0.000000 2.000000
v -0.500000 2.000000 2.000000
v -2.000000 2.000000 2.000000
v -0.500000 2.000000 2.000000
v -2.000000 2.000000 -2.000000
v -0.500000 2.000000 -2.000000
v -0.700000 2.000000 1.800000
v -0.700000 2.000000 -1.800000
v -1.800000 2.000000 -1.800000
v -1.800000 2.000000 1.800000
v -2.000000 0.000000 2.000000
v -0.500000 0.000000 2.000000
v -2.000000 0.000000 -2.000000
v -0.500000 0.000000 -2.000000
vn 0.0000 -1.0000 -0.0000
vn 0.0000 1.0000 0.0000
vn 0.0000 0.0000 -1.0000
vn 0.0000 0.0000 1.0000
vn 1.0000 0.0000 0.0000
vn -1.0000 0.0000 0.0000
usemtl Layer_Layer0.002
s 1
f 313//33 314//33 315//33
f 314//33 313//33 316//33
f 314//33 316//33 317//33
f 317//33 316//33 318//33
f 315//33 319//33 320//33
f 319//33 315//33 314//33
f 320//33 319//33 318//33
f 320//33 318//33 316//33
f 321//34 322//34 323//34
f 322//34 324//34 323//34
f 325//34 326//34 324//34
f 323//34 324//34 326//34
f 322//34 321//34 327//34
f 327//34 321//34 325//34
f 321//34 328//34 325//34
f 326//34 325//34 328//34
f 329//35 330//35 331//35
f 330//35 329//35 332//35
f 333//36 334//36 335//36
f 336//36 335//36 334//36
f 337//37 338//37 339//37
f 338//37 337//37 340//37
f 341//38 342//38 343//38
f 344//38 343//38 342//38
f 345//36 346//36 347//36
f 346//36 345//36 348//36
f 349//35 350//35 351//35
f 352//35 351//35 350//35
f 353//38 354//38 355//38
f 354//38 353//38 356//38
f 357//37 358//37 359//37
f 360//37 359//37 358//37
